<?xml version="1.0" encoding="UTF-8"?>
<svg enable-background="new 0 0 125 250" version="1.1" viewBox="0 0 92 250" xml:space="preserve" xmlns="http://www.w3.org/2000/svg">
<path d="m55 251c-5.0221 0-10.044 0-15.785-0.28093-7.91-2.1897-15.001-4.4874-22.645-3.9465-4.4747 
0.3166-7.0811-1.9017-7.5378-6.6498-2.0637-21.457-4.2112-42.907-6.419-64.35-0.23563-2.2886-1.061-4.5164-1.6128-6.7725 1e-6
-1.3889 1e-6 -2.7778 0.36418-4.7121 0.38099-2.0884 0.39779-3.6313 0.50484-5.5476 0.05846-1.1385 
0.026668-1.9037 0.058195-3.0679 0.035408-1.4713 0.007496-2.5437 0.016212-4.0187 0.037164-1.4782 
0.0377-2.5536 0.046152-4.0983-0.001725-5.8436-0.011365-11.218-0.016008-17.008-0.013048-1.8125-0.031094-3.2098-0.022283-5.0228
0.001695-1.8086-0.023468-3.2015-0.018415-4.993-0.29082-1.7764-0.61185-3.1541-0.93288-4.5318 
0-1.0667 0-2.1333 0.39619-3.7306 0.79989-3.9932 1.2057-7.4556 1.607-10.919 4.3437-37.491 
14.26-72.65 41.997-100.35 0.75 0 1.5 0 2.7824 0.29363 13.03 11.746 21.821 25.745 28.224 
41.276 16.208 39.314 17.726 80.615 15.313 122.19-1.4253 24.55-4.6951 48.991-7.0399 73.49-0.69192
7.2296-1.8541 8.6875-9.2097 8.555-7.0642-0.12724-13.692 1.3069-20.07 4.1976m30.328-104.72c0.14339
2.9276 0.28677 5.8552 0.43017 8.7828 1.3707-1.2761 2.0421-2.6396 2.019-3.9912-0.24117-14.129
0.21302-28.335-1.1459-42.363-1.3162-13.586-7.9673-24.367-22.226-28.298-10.6-2.9224-21.371-2.9263-32.149-0.81961-13.106
2.5619-21.312 10.404-24.409 23.301-3.9747 16.553-3.3723 33.349-1.9693 50.142 0.06125 0.73314
0.71749 1.4166 1.0966 2.1231 0.87583-1.8299 0.82549-3.4295 0.88408-5.0251 0.35421-9.6454
0.35105-19.323 1.1958-28.927 1.1961-13.597 8.3413-22.079 21.862-24.074 9.7358-1.4363
19.971-1.6814 29.71-0.39385 14.995 1.9822 21.695 9.5697 23.565 24.674 0.97798 7.8959
0.76518 15.939 1.1359 24.868z" fill="#202A44"/>
<path d="m85.305 145.81c-0.34788-8.4527-0.13507-16.496-1.1131-24.392-1.8708-15.104-8.5708-22.691-23.565-24.674-9.7394-1.2875-19.974-1.0424-29.71
0.39385-13.521 1.9946-20.666 10.477-21.862 24.074-0.84479 9.6031-0.84163 19.281-1.1958 28.927-0.058594
1.5956-0.00825 3.1951-0.88408 5.0251-0.37908-0.70657-1.0353-1.39-1.0966-2.1231-1.403-16.793-2.0055-33.589
1.9693-50.142 3.0968-12.897 11.303-20.739 24.409-23.301 10.778-2.1067 21.549-2.1028 32.149 0.81961 14.258
3.931 20.909 14.712 22.226 28.298 1.359 14.028 0.90477 28.233 1.1459 42.363 0.023079 1.3516-0.64831
2.7151-2.019 3.9912-0.1434-2.9276-0.28678-5.8552-0.45304-9.2587z" fill="#54D8D9"/>
</svg>
